<svg xmlns="http://www.w3.org/2000/svg" viewBox="0 0 481 644" fill="currentColor">
  <path fill-rule="evenodd" d="M0.00,322.00L0.00,0.00L240.50,0.00L481.00,0.00L481.00,322.00L481.00,644.00L240.50,644.00L0.00,644.00L0.00,322.00Z M214.55,633.07C215.34,632.29 220.30,631.89 239.72,631.05C240.38,631.02 242.52,629.60 244.47,627.90L248.00,624.79L248.00,622.40L248.00,620.00L250.61,620.00L253.23,620.00L252.58,624.31L251.93,628.63L253.97,630.47L256.00,632.31L274.25,631.60C284.29,631.21 297.68,630.73 304.00,630.53C310.32,630.33 321.30,629.21 328.39,628.06L341.29,625.95L345.69,622.97C348.12,621.34 350.30,620.00 350.55,620.00C350.80,620.00 351.90,619.10 353.00,618.00C355.15,615.85 355.61,614.00 354.00,614.00C353.45,614.00 353.00,612.88 353.00,611.50L353.00,609.00L354.55,609.00C355.40,609.00 357.43,608.31 359.05,607.47L362.00,605.95L362.00,602.10L362.00,598.24L360.45,596.96L358.89,595.67L348.46,595.20L338.03,594.74L336.94,593.43L335.85,592.11L336.98,579.81C337.60,573.04 338.49,563.90 338.97,559.50C339.45,555.10 339.88,547.11 339.92,541.75L340.00,532.00L342.25,532.00C343.49,532.01 345.85,532.90 347.50,533.99C354.30,538.48 357.04,539.67 362.51,540.49L366.53,541.10L370.01,539.64C375.64,537.29 379.09,534.00 381.62,528.58L383.98,523.50L383.97,515.00L383.96,506.50L381.48,499.50C380.12,495.65 379.01,491.28 379.00,489.80C379.00,488.31 378.39,486.74 377.64,486.30C376.89,485.86 374.55,482.12 372.44,478.00C370.33,473.88 368.24,470.35 367.80,470.17C367.36,469.98 367.00,469.13 367.00,468.26C367.00,467.40 365.88,465.21 364.50,463.41C363.12,461.61 362.00,459.48 362.00,458.68C362.00,457.89 359.76,454.37 357.02,450.87C354.28,447.37 352.03,443.81 352.02,442.96C352.01,442.11 350.13,439.41 347.84,436.96C345.56,434.51 343.10,431.08 342.37,429.34C341.64,427.61 339.72,425.13 338.10,423.84C334.40,420.90 328.00,411.43 328.00,408.89L328.00,406.98L332.00,405.38C334.20,404.50 336.00,403.36 336.00,402.84C336.00,402.32 337.46,401.21 339.25,400.38C346.34,397.07 348.00,395.70 355.22,387.26C362.58,378.65 367.00,371.61 367.00,368.50C367.00,367.64 367.69,365.88 368.52,364.61C369.36,363.33 370.70,359.18 371.51,355.39L372.97,348.50L372.98,333.94L373.00,319.39L371.07,308.89L369.14,298.40L365.57,291.28C363.61,287.36 362.00,283.46 362.00,282.60C362.00,281.74 360.43,278.58 358.50,275.57C354.58,269.44 354.19,266.94 356.75,264.43C358.39,262.81 360.20,259.87 363.15,254.00C363.85,252.62 365.60,249.93 367.05,248.00C368.50,246.07 370.17,242.70 370.75,240.50C372.12,235.36 374.03,229.91 375.13,228.00C378.11,222.82 382.00,214.01 382.01,212.40C382.03,210.42 384.33,203.24 385.92,200.24C386.42,199.28 387.58,195.80 388.48,192.50C389.39,189.20 390.56,185.45 391.09,184.16C392.88,179.75 394.88,157.50 395.04,140.00L395.21,122.50L392.69,111.71C389.90,99.73 389.43,98.84 381.83,91.00L376.49,85.50L370.00,83.24L363.50,80.98L357.22,80.99L350.94,81.00L347.35,82.50C345.37,83.33 343.11,84.00 342.32,84.00C341.54,84.00 337.53,86.49 333.41,89.53L325.93,95.07L324.74,97.78C324.09,99.28 322.65,101.43 321.53,102.58C313.26,111.04 306.32,124.39 302.88,138.46C301.81,142.84 300.27,147.15 299.46,148.04C298.66,148.93 298.00,150.11 298.00,150.66C298.00,152.77 293.67,165.57 292.48,167.00C290.83,168.96 287.53,182.29 286.03,193.00C285.38,197.68 284.45,203.07 283.97,205.00C283.49,206.93 282.79,211.20 282.41,214.50C282.03,217.80 281.44,222.75 281.11,225.50L280.50,230.50L272.00,230.23C267.32,230.09 261.10,229.71 258.16,229.40L252.82,228.83L253.33,223.67C253.60,220.83 254.95,214.45 256.31,209.50L258.79,200.50L259.99,184.00L261.18,167.50L260.11,140.50L259.03,113.50L256.94,108.00C255.79,104.97 254.43,102.07 253.92,101.55C253.42,101.03 253.00,99.64 253.00,98.47C253.00,97.29 252.70,96.03 252.34,95.67C251.97,95.30 250.91,92.87 249.99,90.25C248.17,85.13 245.42,81.47 237.30,73.34L232.10,68.14L227.30,67.51C224.66,67.16 221.47,66.46 220.20,65.94C216.80,64.55 210.77,64.86 208.56,66.53C207.49,67.34 205.89,68.00 205.01,68.00C202.90,68.00 198.02,70.28 198.01,71.27C198.00,71.70 196.88,72.48 195.50,73.00C194.12,73.52 193.00,74.64 193.00,75.48C193.00,76.31 192.57,77.00 192.03,77.00C189.95,77.00 184.94,83.16 181.55,89.91C179.58,93.81 177.59,97.00 177.13,97.00C176.11,97.00 171.70,109.94 169.63,119.00C167.85,126.80 166.60,142.64 166.62,157.00C166.66,175.57 167.87,203.30 168.96,210.50C171.37,226.33 173.91,241.67 174.56,244.30L175.25,247.10L172.95,249.55C171.69,250.90 170.17,252.02 169.58,252.05C168.98,252.08 165.86,254.95 162.64,258.44C159.41,261.92 154.54,267.17 151.82,270.10C149.09,273.03 146.11,276.71 145.18,278.29L143.50,281.15L139.50,280.53C137.30,280.18 132.12,279.59 128.00,279.20L120.50,278.50L120.56,267.50C120.69,243.67 121.98,187.09 122.55,180.00L123.16,172.50L122.01,164.06L120.85,155.63L120.52,106.56L120.18,57.50L117.09,47.00C115.39,41.23 114.00,35.71 114.00,34.74C114.00,33.77 113.16,31.07 112.13,28.74C111.10,26.41 109.70,22.48 109.03,20.00C107.06,12.72 101.23,8.06 97.48,10.77C94.68,12.80 90.94,18.55 90.00,22.30C88.86,26.81 86.08,33.75 82.51,41.00L80.29,45.50L79.08,54.50C78.42,59.45 77.20,67.33 76.37,72.00L74.86,80.50L75.74,96.00C76.23,104.53 76.46,134.90 76.25,163.50C75.79,228.46 75.86,234.10 77.14,241.50L78.18,247.50L77.47,262.75L76.76,278.00L68.92,278.00L61.07,278.00L55.79,280.08C49.16,282.69 47.45,284.23 44.86,289.94L42.79,294.50L43.98,300.48C45.52,308.19 46.34,309.62 50.26,311.35C55.97,313.88 57.22,314.09 69.39,314.60C75.97,314.87 81.72,315.33 82.18,315.61C82.63,315.89 83.00,318.97 83.00,322.45L83.00,328.78L77.63,334.23L72.26,339.69L70.50,344.99L68.74,350.30L69.36,357.01C70.17,365.67 71.90,369.66 77.10,374.86L81.32,379.08L79.20,388.30L77.08,397.51L77.99,403.91L78.89,410.30L82.65,414.15C84.72,416.27 87.19,418.00 88.14,418.00C89.10,418.00 90.16,418.45 90.50,419.00C90.84,419.55 93.25,420.00 95.86,420.00L100.61,420.00L105.80,417.41C108.66,415.99 111.00,414.41 111.00,413.91C111.00,413.41 112.11,413.00 113.47,413.00L115.93,413.00L119.43,416.50C121.36,418.43 123.39,420.00 123.95,420.00C124.50,420.00 125.82,421.69 126.88,423.76C127.93,425.82 131.37,429.91 134.53,432.85L140.27,438.19L139.62,445.19C139.26,449.04 138.57,452.94 138.08,453.86C137.58,454.78 136.23,462.50 135.07,471.01C133.91,479.53 132.54,489.20 132.02,492.50C131.51,495.80 130.67,503.68 130.16,510.00L129.25,521.50L129.98,529.00C130.39,533.12 131.26,542.58 131.93,550.00C132.59,557.42 133.80,566.20 134.61,569.50C135.42,572.80 136.35,579.56 136.68,584.53L137.27,593.57L129.89,594.72C125.82,595.35 121.04,596.17 119.25,596.55L116.00,597.23L115.98,595.86C115.97,595.11 115.55,590.56 115.04,585.75L114.12,577.01L110.49,570.25C106.71,563.24 103.38,559.00 101.64,559.00C101.08,559.00 99.57,558.01 98.28,556.79L95.93,554.58L93.21,556.22L90.50,557.86L90.18,560.47L89.86,563.07L93.81,570.29L97.76,577.50L98.50,583.00C98.90,586.02 100.08,590.17 101.12,592.21C102.15,594.25 103.00,596.77 103.00,597.80L103.00,599.68L96.00,600.93L89.00,602.18L89.01,606.84L89.02,611.50L91.71,612.75C94.99,614.27 105.06,614.34 110.50,612.87C112.70,612.28 116.19,611.57 118.25,611.29L122.00,610.79L122.00,613.33L122.00,615.88L116.31,618.76C113.19,620.35 110.15,622.39 109.58,623.31L108.52,624.98L111.01,627.37L113.50,629.75L122.50,628.80C127.45,628.28 136.61,627.64 142.85,627.37L154.20,626.88L157.05,627.87L159.90,628.86L165.70,627.96C168.89,627.47 175.32,626.13 180.00,624.99C195.47,621.22 205.47,619.08 207.75,619.04L210.00,619.00L210.00,621.49L210.00,623.98L208.00,625.23L206.00,626.48L206.00,629.66L206.00,632.83L207.25,633.34C209.39,634.20 213.55,634.04 214.55,633.07Z M383.33,630.29L393.17,629.50L394.58,627.56C396.55,624.86 396.36,623.01 393.83,620.31L391.65,618.00L378.15,618.00L364.64,618.00L361.51,619.13L358.39,620.26L356.69,623.21C355.76,624.83 355.00,627.51 355.00,629.15L355.00,632.14L364.25,631.61C369.34,631.31 377.92,630.72 383.33,630.29Z M468.69,617.83C471.64,615.05 471.60,613.69 468.46,610.55L465.92,608.01L462.03,607.39L458.15,606.77L452.57,608.52L447.00,610.27L447.00,611.58C447.00,612.30 447.45,613.16 448.00,613.50C448.55,613.84 449.00,614.97 449.00,616.01C449.00,618.88 451.80,619.94 459.44,619.97L466.37,620.00L468.69,617.83Z M45.00,614.84C49.12,614.33 57.82,613.52 64.33,613.05C70.84,612.57 77.23,611.91 78.54,611.58L80.91,610.98L82.57,607.49L84.23,604.00L86.26,604.00L88.29,604.00L87.75,596.18L87.21,588.36L83.70,580.93L80.18,573.50L75.84,569.49C71.40,565.38 64.84,562.50 61.42,563.15L59.50,563.52L59.18,565.77L58.86,568.01L62.92,576.83C66.41,584.40 69.00,593.20 69.00,597.47L69.00,598.66L54.25,599.86C37.58,601.22 24.46,603.15 21.50,604.70C20.40,605.27 17.48,606.36 15.00,607.12L10.50,608.50L10.17,610.83L9.84,613.16L11.66,615.18L13.48,617.19L25.49,616.48C32.10,616.09 40.88,615.35 45.00,614.84Z M442.25,611.61C444.69,609.76 444.43,606.67 441.55,603.25L439.11,600.34L433.94,598.67C431.10,597.75 427.70,597.00 426.40,597.00L424.03,597.00L424.64,589.68L425.26,582.35L422.50,580.18C420.98,578.98 419.09,578.00 418.32,578.00C415.69,578.00 410.62,581.23 405.18,586.38L399.77,591.50L396.81,597.89L393.85,604.28L394.40,606.47C394.70,607.67 396.11,609.18 397.52,609.83L400.09,611.00L409.30,611.09C414.36,611.14 420.75,611.53 423.50,611.95C426.25,612.38 431.20,612.78 434.50,612.83L440.50,612.94L442.25,611.61Z M296.38,603.43C293.97,600.92 291.74,597.65 291.41,596.18C290.42,591.66 286.95,580.60 285.95,578.76C285.43,577.81 284.99,576.23 284.97,575.26C284.86,569.24 278.33,557.32 273.82,554.90C272.66,554.28 264.72,553.14 256.18,552.36C247.63,551.58 240.07,550.48 239.38,549.90L238.12,548.85L220.31,550.00C210.51,550.63 200.89,551.56 198.92,552.07C193.65,553.42 186.91,557.23 184.84,560.04L183.02,562.50L182.02,572.20C181.47,577.54 181.30,583.89 181.63,586.32L182.24,590.74L181.12,591.43C180.50,591.81 180.00,592.84 180.00,593.73C180.00,596.56 176.56,602.95 175.00,603.01C174.18,603.04 172.63,603.72 171.56,604.53L169.62,606.00L165.47,606.00L161.32,606.00L158.66,601.11L156.00,596.23L156.00,591.56C156.00,586.35 154.66,576.31 152.45,565.00L150.99,557.50L150.10,533.00L149.21,508.50L150.06,500.00C152.05,480.21 153.11,472.96 155.42,463.50C156.75,458.00 158.38,450.35 159.03,446.50C159.68,442.65 160.81,437.25 161.55,434.50C162.28,431.75 163.18,426.06 163.55,421.86L164.22,414.21L161.92,411.11L159.62,408.00L156.90,408.00L154.18,408.00L151.59,411.08C150.17,412.77 149.00,414.57 149.00,415.08C149.00,415.58 147.81,416.00 146.35,416.00L143.69,416.00L139.77,411.75C137.61,409.41 134.21,405.36 132.21,402.75C130.22,400.14 128.12,398.00 127.54,397.99C126.97,397.99 125.73,396.75 124.78,395.24C123.83,393.73 122.49,391.60 121.80,390.50C116.60,382.19 115.15,380.17 112.48,377.51C108.14,373.19 100.99,367.55 97.50,365.71C95.85,364.84 92.54,362.30 90.14,360.07L85.77,356.02L86.43,352.54C86.79,350.63 88.23,347.70 89.63,346.03L92.18,343.00L96.35,343.00L100.53,343.00L104.89,347.50C107.29,349.98 110.11,352.00 111.16,352.00C112.21,352.00 113.33,352.69 113.65,353.54C113.98,354.38 115.48,355.71 116.99,356.50C121.46,358.81 131.40,369.21 137.61,378.07C140.79,382.61 145.53,388.39 148.13,390.91L152.86,395.50L163.38,401.25L173.90,407.00L177.70,406.93C182.14,406.84 187.35,404.10 187.84,401.59C188.02,400.63 187.65,398.57 187.01,397.02L185.84,394.19L177.17,387.40C167.41,379.76 159.00,371.65 159.00,369.88C159.00,369.24 157.50,366.86 155.66,364.60C153.82,362.35 151.00,358.48 149.41,356.00L146.50,351.50L146.50,329.33L146.50,307.17L148.56,304.33C149.70,302.78 152.09,298.91 153.89,295.75C155.68,292.59 157.49,290.00 157.91,290.00C158.33,290.00 159.19,288.87 159.82,287.49C161.95,282.83 179.46,265.00 181.92,265.00C182.47,265.00 183.73,264.15 184.71,263.11C187.98,259.65 194.42,256.73 200.50,255.95C208.90,254.87 214.79,253.33 219.84,250.88L224.18,248.77L230.34,249.24C233.73,249.50 237.48,249.35 238.67,248.91L240.84,248.11L255.17,248.96C263.05,249.43 270.85,250.11 272.50,250.46C274.15,250.82 278.72,251.82 282.66,252.68L289.82,254.26L293.52,253.56C295.56,253.18 298.30,251.79 299.61,250.48L302.00,248.09L302.00,243.52L302.00,238.95L299.71,238.08C298.45,237.60 296.81,236.47 296.06,235.57L294.70,233.93L295.81,228.72C296.88,223.74 297.24,220.49 298.66,202.75L299.29,195.01L300.64,193.88L302.00,192.76L302.02,187.13C302.05,180.32 302.76,177.41 307.51,164.50C309.54,159.00 311.43,153.26 311.71,151.74C312.00,150.22 312.63,148.73 313.12,148.43C313.60,148.13 314.00,147.07 314.00,146.08C314.00,145.08 314.90,143.13 316.00,141.73C317.10,140.33 318.00,138.48 318.00,137.62C318.00,136.76 319.12,133.60 320.50,130.59C321.88,127.59 323.00,124.69 323.00,124.14C323.00,123.20 332.26,111.88 336.56,107.57C337.70,106.43 339.95,104.89 341.56,104.14C343.18,103.40 345.93,102.11 347.67,101.28L350.84,99.77L358.30,100.15L365.76,100.53L368.89,103.59L372.02,106.65L373.52,112.43L375.03,118.22L375.19,129.36C375.28,135.49 375.11,146.89 374.82,154.71L374.28,168.92L372.79,171.21C371.97,172.47 370.97,175.30 370.56,177.50C370.15,179.70 369.50,181.95 369.10,182.50C368.71,183.05 367.33,187.32 366.04,192.00C364.74,196.68 362.67,202.30 361.42,204.50C360.17,206.70 358.84,210.19 358.46,212.26C358.08,214.33 357.37,216.27 356.89,216.57C356.40,216.87 356.00,217.93 356.00,218.92C356.00,219.92 355.19,221.80 354.19,223.12C353.20,224.43 351.77,227.53 351.02,230.00C350.27,232.47 349.28,234.93 348.83,235.45C348.37,235.97 348.00,237.13 348.00,238.02C348.00,238.90 346.20,243.17 344.00,247.50C341.80,251.83 340.00,256.10 340.00,256.99C340.00,257.89 339.34,259.49 338.53,260.56C335.82,264.15 336.86,270.07 343.03,286.00C344.62,290.12 346.23,294.85 346.59,296.50C346.96,298.15 348.07,301.07 349.07,303.00C350.07,304.93 351.11,308.07 351.39,310.00C351.67,311.93 352.41,316.43 353.03,320.00L354.16,326.50L353.57,337.00L352.99,347.50L350.52,353.50C349.16,356.80 348.04,360.48 348.02,361.69C348.01,362.89 346.65,365.35 345.00,367.16C343.35,368.97 342.00,371.07 342.00,371.84C342.00,374.30 335.79,380.43 331.08,382.63C328.56,383.80 325.64,385.72 324.60,386.88C323.55,388.05 322.15,389.00 321.49,389.00C319.40,389.00 306.62,396.04 303.75,398.76L301.00,401.37L301.00,404.25C301.00,407.61 302.11,409.94 305.42,413.51C306.73,414.92 308.07,417.13 308.39,418.41C308.71,419.69 310.67,422.54 312.74,424.76C314.81,426.97 318.07,430.72 320.00,433.11C321.93,435.49 325.01,438.80 326.86,440.47C328.70,442.14 332.18,446.43 334.59,450.00C337.00,453.57 340.90,458.98 343.27,462.00C345.64,465.02 348.17,468.95 348.90,470.72C349.62,472.49 350.84,474.45 351.61,475.09C352.37,475.72 353.00,477.02 353.00,477.98C353.00,478.93 354.14,481.01 355.53,482.60C359.55,487.20 360.00,487.85 360.00,488.97C360.00,489.55 360.41,490.81 360.92,491.76C361.42,492.72 362.93,495.75 364.27,498.50L366.71,503.50L367.35,510.67C367.71,514.61 367.73,518.55 367.39,519.42C366.66,521.32 363.37,521.41 360.16,519.63C357.64,518.24 351.00,510.35 351.00,508.76C351.00,508.23 347.70,502.78 343.67,496.65C339.64,490.52 335.71,483.48 334.93,481.00C333.35,475.95 327.86,469.28 324.10,467.85L321.63,466.91L318.86,468.06L316.09,469.21L314.90,472.79L313.72,476.38L314.90,487.94C315.55,494.30 316.32,501.75 316.60,504.50C317.56,513.63 317.29,576.33 316.25,587.00C314.64,603.61 312.22,608.00 304.69,608.00L300.76,608.00L296.38,603.43Z M383.81,603.25C384.40,601.74 385.36,598.09 385.95,595.13C386.54,592.18 387.92,588.51 389.02,586.97C392.39,582.24 395.98,573.66 395.99,570.32L396.00,567.13L393.91,566.47C392.77,566.11 390.25,566.11 388.33,566.47L384.83,567.12L380.33,571.81C377.86,574.39 374.48,579.31 372.82,582.75L369.81,589.00L369.28,594.85L368.75,600.69L370.49,603.34L372.23,606.00L377.49,606.00L382.76,606.00L383.81,603.25Z M205.75,590.19L202.00,589.88L202.01,583.69C202.02,580.29 202.59,576.40 203.27,575.05L204.51,572.60L211.00,571.26L217.50,569.92L235.57,570.02L253.65,570.11L257.57,571.44L261.50,572.77L262.93,575.63C263.72,577.21 264.56,580.86 264.80,583.73L265.25,588.97L263.87,589.42C262.23,589.96 211.14,590.64 205.75,590.19Z M95.67,401.33C95.30,400.97 95.00,399.14 95.00,397.27L95.00,393.87L97.75,394.18L100.50,394.50L100.81,398.25L101.12,402.00L98.73,402.00C97.41,402.00 96.03,401.70 95.67,401.33Z M309.68,360.75L312.99,358.50L312.98,355.00C312.97,350.65 312.36,349.72 308.09,347.53L304.68,345.78L298.88,346.20L293.07,346.62L291.04,348.47L289.00,350.31L289.00,353.20L289.00,356.10L291.62,358.53C293.06,359.86 295.88,361.23 297.87,361.56C299.87,361.89 301.95,362.32 302.50,362.50C304.83,363.29 306.57,362.87 309.68,360.75Z M173.93,350.37C175.07,348.92 176.00,346.70 176.00,345.44L176.00,343.15L173.37,341.07C167.56,336.51 158.11,340.28 158.03,347.19L158.00,349.89L160.22,351.44L162.45,353.00L167.15,353.00L171.85,353.00L173.93,350.37Z M245.07,339.96L247.00,338.93L247.00,335.63L247.00,332.34L244.50,331.00L242.00,329.66L242.00,327.33C242.00,326.05 242.40,325.00 242.89,325.00C244.22,325.00 245.13,321.99 244.45,319.84C244.12,318.81 242.01,317.03 239.76,315.88L235.66,313.79L229.39,314.19L223.11,314.59L221.06,316.45L219.00,318.31L219.00,323.04L219.00,327.77L216.50,329.41L214.00,331.05L214.00,333.82C214.00,335.35 214.54,337.14 215.20,337.80C216.87,339.47 223.22,339.30 225.56,337.53C228.35,335.42 231.07,335.72 234.50,338.53L237.50,340.99L240.32,341.00C241.86,341.00 244.00,340.53 245.07,339.96Z M118.25,334.40L113.00,330.94L113.00,325.04L113.00,319.14L118.37,318.47C121.32,318.10 124.58,317.96 125.62,318.16L127.50,318.52L127.79,328.26L128.07,338.00L125.79,337.93C124.53,337.89 121.14,336.30 118.25,334.40Z M303.59,335.39C305.46,334.50 308.34,332.24 309.99,330.35L313.00,326.93L313.00,321.87L313.00,316.81L311.34,314.00C308.11,308.54 297.63,305.36 291.80,308.07C290.53,308.66 288.64,310.30 287.59,311.72L285.68,314.30L285.22,321.50L284.76,328.69L288.34,332.27C293.15,337.09 297.95,338.07 303.59,335.39Z M179.14,330.59C181.00,329.81 183.72,328.06 185.19,326.70L187.86,324.22L189.01,319.95L190.16,315.68L189.53,312.28L188.89,308.89L184.94,304.94L181.00,301.00L176.65,301.00L172.30,301.00L169.00,303.25C164.97,306.00 162.00,311.33 162.00,315.81L162.00,319.14L164.51,323.43C168.02,329.42 169.91,330.92 175.13,331.88C175.47,331.95 177.28,331.36 179.14,330.59Z M120.63,304.30C120.25,303.92 107.17,302.84 91.56,301.92C75.96,300.99 62.70,299.93 62.09,299.56C61.49,299.19 61.00,297.86 61.00,296.61L61.00,294.34L63.41,293.05L65.82,291.76L69.66,292.38C71.77,292.72 77.69,293.43 82.80,293.95L92.11,294.91L94.44,293.85L96.77,292.78L101.93,293.89C104.77,294.50 109.89,295.00 113.30,295.01C116.71,295.01 122.54,295.30 126.25,295.65L133.00,296.29L132.97,298.89C132.95,300.33 132.34,302.29 131.61,303.25L130.28,305.00L125.81,305.00C123.35,305.00 121.02,304.69 120.63,304.30Z M93.42,276.86C93.03,276.24 92.55,250.93 92.35,220.61C92.14,190.30 91.80,145.03 91.58,120.00L91.18,74.50L92.16,68.00C92.69,64.42 94.09,58.69 95.25,55.25L97.37,49.00L99.68,49.00C100.96,49.00 102.00,49.34 102.00,49.75C102.00,50.16 102.68,57.47 103.51,66.00L105.02,81.50L105.17,118.00C105.38,166.65 105.37,184.76 105.10,234.48L104.88,276.45L103.69,277.21C101.84,278.39 94.20,278.13 93.42,276.86Z M321.95,242.03C324.95,240.42 327.47,235.08 330.45,224.00C332.01,218.22 333.67,213.07 334.14,212.55C334.61,212.03 335.00,210.21 335.00,208.51C335.00,204.13 337.82,193.86 339.54,191.95L341.00,190.34L341.00,186.32C341.00,184.12 341.77,180.78 342.71,178.90C343.64,177.03 344.75,173.03 345.15,170.00C345.94,164.14 349.45,145.05 350.53,140.75L351.17,138.17L349.09,136.09L347.00,134.00L343.64,134.00L340.27,134.00L337.64,137.80C336.19,139.90 335.00,141.99 335.00,142.46C335.00,142.92 333.91,145.62 332.57,148.45C331.23,151.27 329.15,157.61 327.95,162.54C326.74,167.47 325.04,172.85 324.17,174.50C321.30,179.90 320.04,184.37 318.95,193.00C318.37,197.68 317.01,205.32 315.93,210.00C314.86,214.68 313.98,219.68 313.99,221.13C314.00,222.57 313.32,225.37 312.50,227.35C309.73,233.98 311.30,239.97 316.36,242.01C319.22,243.16 319.82,243.17 321.95,242.03Z M191.01,239.02C190.43,237.93 189.50,233.31 188.95,228.77C188.40,224.22 187.51,219.38 186.98,218.00C186.45,216.62 186.10,213.47 186.21,211.00C186.32,208.53 185.66,202.45 184.74,197.50L183.07,188.50L183.39,158.00L183.70,127.50L185.90,121.50C187.11,118.20 188.53,114.10 189.06,112.40C189.58,110.69 190.91,108.49 192.01,107.49C193.10,106.50 194.00,104.82 194.00,103.75C194.00,102.69 194.90,100.67 196.00,99.27C197.10,97.87 198.00,96.13 198.00,95.40C198.00,93.78 204.62,87.00 206.20,87.00C206.83,87.00 208.14,86.28 209.11,85.40L210.88,83.80L216.00,84.50C218.81,84.89 221.53,85.72 222.05,86.35C228.48,94.24 230.10,96.60 230.61,98.85C230.93,100.31 233.02,106.22 235.24,112.00L239.28,122.50L238.93,139.50C238.74,148.85 238.71,164.15 238.88,173.50L239.18,190.50L237.39,202.00C236.41,208.32 235.58,217.30 235.55,221.94L235.50,230.38L224.00,232.56C213.16,234.61 201.67,238.17 199.55,240.12C199.03,240.61 197.13,241.00 195.34,241.00L192.07,241.00L191.01,239.02Z M216.56,225.58L218.50,224.16L218.34,210.83C218.24,203.50 217.57,189.85 216.84,180.50C216.11,171.15 215.63,157.34 215.77,149.80L216.02,136.11L214.18,132.80L212.34,129.50L208.17,129.19L203.99,128.88L203.00,131.51C202.45,132.95 202.00,135.59 202.00,137.37C202.00,139.14 201.57,141.03 201.05,141.55L200.10,142.50L199.70,164.00L199.29,185.50L200.62,192.00C201.35,195.57 202.26,203.81 202.63,210.31L203.31,222.12L205.23,224.56L207.15,227.00L210.88,227.00C212.94,227.00 215.49,226.36 216.56,225.58Z"/>
</svg>
