<svg xmlns="http://www.w3.org/2000/svg" viewBox="0 0 394 441" fill="currentColor">
  <path fill-rule="evenodd" d="M0.00,220.50L0.00,0.00L197.00,0.00L394.00,0.00L394.00,220.50L394.00,441.00L197.00,441.00L0.00,441.00L0.00,220.50Z M121.92,429.10C123.80,428.52 130.10,427.77 135.92,427.43C141.74,427.10 148.97,426.13 152.00,425.28C155.03,424.43 160.43,423.17 164.00,422.49C189.38,417.62 207.03,409.81 218.39,398.41C222.30,394.48 227.45,390.28 229.83,389.07C232.26,387.84 234.90,385.52 235.83,383.78C236.75,382.07 239.53,378.38 242.00,375.57C244.50,372.74 248.67,365.92 251.38,360.21C255.90,350.73 257.37,345.69 260.94,327.50C261.59,324.20 262.55,319.58 263.06,317.24C263.58,314.89 264.00,311.46 264.00,309.61C264.00,307.77 264.87,304.28 265.92,301.88C267.85,297.50 273.70,271.52 274.69,262.96C275.32,257.48 273.95,255.97 267.75,255.29C261.27,254.58 258.63,256.11 255.11,262.61C253.40,265.77 252.00,268.69 252.00,269.09C252.00,270.54 245.13,280.22 243.08,281.65C241.89,282.49 239.40,282.99 237.31,282.81C233.86,282.52 233.42,282.08 230.13,275.56C228.20,271.75 224.91,266.91 222.81,264.81C218.05,260.05 214.40,259.78 209.83,263.86L206.64,266.72L206.01,284.64C205.67,294.49 205.04,303.13 204.60,303.83C204.17,304.53 203.71,309.30 203.57,314.43C203.37,322.17 202.97,324.22 201.23,326.44C200.07,327.91 198.38,331.34 197.48,334.07C196.37,337.39 194.62,340.01 192.16,342.00C190.15,343.63 186.54,346.55 184.16,348.48C181.77,350.42 178.80,352.00 177.56,352.00C176.32,352.00 173.32,353.34 170.90,354.98C168.48,356.62 166.14,357.97 165.71,357.98C165.27,357.99 163.70,358.85 162.21,359.89C159.97,361.46 156.45,361.96 142.00,362.80C117.63,364.22 72.00,364.32 59.86,362.98C47.85,361.66 44.97,362.44 42.47,367.70C38.80,375.44 40.88,405.28 45.87,416.49C49.54,424.72 54.07,428.40 62.33,429.88C68.53,430.99 117.92,430.35 121.92,429.10Z M101.94,355.06C103.01,353.99 104.20,351.43 104.59,349.38C105.18,346.23 104.94,345.37 103.03,343.83C99.76,341.18 93.54,341.39 91.56,344.22C89.48,347.19 89.58,352.32 91.75,354.21C95.45,357.44 99.25,357.75 101.94,355.06Z M78.63,352.92C82.79,350.35 82.87,348.70 79.00,345.84C76.58,344.05 76.00,342.89 76.00,339.81C76.00,335.77 74.70,334.98 71.76,337.25C70.72,338.06 69.91,340.84 69.48,345.08C68.92,350.50 69.10,351.95 70.47,353.33C72.67,355.53 74.56,355.44 78.63,352.92Z M54.82,347.61C56.73,340.83 55.60,338.79 49.07,337.11C44.42,335.92 43.70,335.96 41.98,337.51C39.12,340.11 37.62,345.42 39.02,348.03C40.52,350.83 45.63,353.03 49.97,352.74C53.22,352.52 53.54,352.18 54.82,347.61Z M126.39,351.75C126.57,351.06 127.25,348.83 127.91,346.78C129.37,342.25 128.30,339.78 124.13,338.06C119.77,336.25 116.84,337.09 114.28,340.90C110.89,345.95 111.32,347.61 116.75,350.43C121.97,353.15 125.88,353.69 126.39,351.75Z M146.94,350.08C150.67,344.85 150.51,338.38 146.60,335.77C144.56,334.40 140.83,334.99 137.79,337.15C134.93,339.19 134.81,339.54 135.45,344.32C136.40,351.49 137.45,353.00 141.47,353.00C144.08,353.00 145.34,352.33 146.94,350.08Z M165.95,342.56C166.61,341.77 167.00,339.86 166.82,338.31C166.57,336.13 165.92,335.43 163.90,335.20C160.78,334.84 157.53,338.96 158.51,342.05C159.26,344.40 164.14,344.74 165.95,342.56Z M72.53,329.55L76.00,328.10L76.00,321.11C76.00,317.26 75.58,313.86 75.06,313.54C73.75,312.72 66.35,314.02 64.54,315.37C63.70,316.01 62.76,318.96 62.40,322.15C61.77,327.63 61.84,327.85 64.62,329.36C68.22,331.31 68.32,331.31 72.53,329.55Z M98.37,327.93C100.54,326.21 101.00,325.04 101.00,321.15C101.00,318.51 100.32,315.47 99.44,314.22C97.39,311.29 92.20,311.27 88.51,314.17C85.94,316.20 85.79,316.70 86.33,321.90C86.96,327.99 88.62,330.00 93.06,330.00C94.53,330.00 96.92,329.07 98.37,327.93Z M138.82,328.91C141.76,327.89 146.00,322.68 146.00,320.09C146.00,317.83 141.13,314.00 138.27,314.00C133.34,314.00 131.00,316.49 131.00,321.73C131.00,324.62 131.62,327.03 132.65,328.17C134.60,330.32 134.75,330.33 138.82,328.91Z M119.45,326.03C124.48,322.58 125.86,318.96 123.52,315.39C121.65,312.53 118.37,312.31 112.27,314.64L107.97,316.28L108.62,321.39C109.70,329.94 112.21,331.02 119.45,326.03Z M167.20,324.51C172.26,321.07 172.99,318.25 169.57,315.31C165.83,312.09 156.47,311.93 155.48,315.07C154.68,317.59 155.66,322.00 157.02,322.00C157.56,322.00 158.00,322.82 158.00,323.83C158.00,327.83 161.89,328.12 167.20,324.51Z M49.66,323.94C53.06,322.65 53.96,321.35 53.98,317.75C54.01,312.37 47.30,309.16 41.98,312.01C39.25,313.47 38.37,319.39 40.41,322.50C42.19,325.22 45.10,325.67 49.66,323.94Z M297.86,313.53C301.51,312.24 305.93,310.89 307.68,310.53C309.42,310.17 313.29,308.13 316.27,306.00C319.24,303.86 322.92,301.81 324.42,301.43C327.80,300.58 338.14,291.16 341.16,286.17C342.38,284.15 345.12,280.50 347.25,278.05C351.53,273.11 362.00,253.02 362.00,249.75C362.00,248.60 362.63,246.95 363.39,246.08C365.92,243.20 373.98,219.06 375.46,209.93C376.26,204.99 377.13,200.59 377.40,200.15C378.38,198.58 381.00,184.42 381.04,180.50C381.07,178.30 381.74,174.70 382.53,172.50C383.32,170.30 383.98,167.40 383.98,166.06C384.01,161.37 381.77,151.46 379.44,146.00C378.15,142.97 376.82,137.49 376.48,133.82C375.98,128.46 375.05,125.78 371.82,120.32C369.60,116.57 365.96,110.43 363.73,106.67C361.50,102.91 356.10,95.94 351.74,91.17C347.37,86.40 340.53,78.45 336.53,73.50C331.87,67.72 325.55,61.55 318.88,56.27C306.99,46.84 290.38,36.08 287.64,36.03C286.62,36.01 284.42,34.85 282.75,33.44C278.44,29.81 268.54,25.00 265.40,25.00C263.95,25.00 259.16,23.38 254.76,21.39C249.71,19.11 244.15,17.46 239.63,16.90C235.71,16.41 229.12,15.33 225.00,14.50C215.51,12.59 190.95,10.54 180.58,10.79C176.22,10.90 169.08,11.67 164.72,12.49C160.35,13.32 152.81,14.00 147.95,14.00C143.10,14.00 137.86,14.49 136.32,15.08C134.77,15.68 129.68,17.22 125.00,18.51C111.39,22.26 106.79,24.09 102.00,27.65C99.53,29.50 95.03,32.66 92.00,34.67C78.63,43.60 56.63,67.79 50.14,80.70C48.42,84.11 46.09,90.41 44.94,94.70C42.34,104.48 35.51,121.23 31.96,126.50C24.60,137.47 14.84,154.36 13.13,159.14C10.37,166.79 9.62,179.32 11.57,184.94C13.61,190.78 13.83,205.52 12.23,229.90C11.13,246.81 11.16,249.59 12.45,251.56C14.10,254.08 22.64,258.41 28.00,259.45C39.28,261.63 40.29,263.60 40.45,283.74C40.52,292.48 41.00,299.40 41.58,299.98C43.80,302.20 54.19,303.08 70.22,302.41C79.17,302.04 93.70,301.61 102.50,301.46C124.89,301.06 153.54,298.71 162.71,296.51C163.92,296.22 167.57,293.77 170.82,291.07C175.68,287.02 176.93,285.33 177.90,281.49C179.84,273.78 179.35,273.25 167.74,270.45C165.91,270.00 164.13,270.34 162.43,271.45C158.62,273.95 155.50,273.15 155.50,269.68C155.50,267.16 156.09,266.66 161.00,264.95C164.03,263.90 168.97,262.75 172.00,262.38C175.03,262.02 178.72,261.11 180.20,260.36C181.69,259.61 184.16,258.99 185.70,258.99C187.24,258.98 190.97,258.26 194.00,257.38C197.03,256.51 201.75,255.44 204.50,255.00C214.00,253.50 225.53,250.91 233.56,248.46C239.31,246.70 243.96,246.00 249.80,246.00C255.72,246.00 259.43,245.43 263.24,243.93C266.13,242.79 271.82,241.45 275.88,240.96C279.95,240.47 284.00,239.45 284.88,238.70C285.77,237.95 288.07,236.72 290.00,235.98C291.93,235.24 295.38,233.37 297.68,231.82C302.34,228.68 308.92,227.99 310.95,230.44C313.44,233.44 311.77,237.31 306.50,240.73C303.75,242.51 300.60,245.06 299.50,246.38C298.40,247.71 296.60,248.96 295.50,249.16C294.26,249.38 293.37,250.46 293.16,252.01C292.97,253.38 291.61,255.69 290.14,257.15C288.66,258.60 286.42,262.43 285.15,265.65C283.89,268.87 281.99,273.52 280.94,276.00C277.18,284.85 275.00,295.21 275.00,304.23C275.00,311.83 275.28,313.28 277.12,315.12C278.98,316.98 279.94,317.15 285.23,316.55C288.53,316.18 294.21,314.82 297.86,313.53Z M68.00,267.98C66.08,267.47 61.35,265.77 57.50,264.19L50.50,261.31L49.78,251.41C49.39,245.96 49.23,235.49 49.42,228.15C49.62,220.81 49.34,213.16 48.80,211.15C47.01,204.55 40.88,200.00 33.75,200.00C31.93,200.00 29.46,199.31 28.26,198.47C25.94,196.84 25.73,195.97 24.04,180.60C22.98,170.97 23.02,170.57 25.41,165.98C28.63,159.84 36.51,148.37 40.36,144.25C43.95,140.41 47.85,140.00 52.72,142.97C56.74,145.42 57.44,148.14 56.66,158.25C56.18,164.49 55.43,167.27 53.28,170.88C47.53,180.47 46.90,183.42 49.83,187.03C51.15,188.66 53.26,189.51 57.49,190.08C65.09,191.11 67.74,193.71 69.65,202.00C70.45,205.44 72.36,210.78 73.91,213.88C75.46,216.97 77.03,221.30 77.41,223.50C78.60,230.43 80.06,233.88 82.06,234.52C83.61,235.01 84.00,236.07 84.02,239.82C84.02,242.39 84.68,247.20 85.48,250.50C87.45,258.68 87.42,265.41 85.40,267.09C83.45,268.70 72.82,269.25 68.00,267.98Z M223.62,224.35C222.24,222.23 220.19,219.38 219.07,218.00C217.96,216.62 217.03,214.36 217.02,212.96C217.01,211.57 216.08,208.64 214.95,206.46C213.53,203.71 212.63,199.24 212.01,191.88C211.12,181.14 207.49,169.69 202.84,162.88C201.33,160.67 201.13,158.91 201.61,151.88C202.09,144.92 202.95,141.72 206.69,133.00C209.17,127.22 211.72,122.17 212.35,121.77C214.49,120.40 219.04,120.95 219.69,122.64C220.04,123.55 219.53,128.19 218.56,132.97C216.22,144.50 217.48,160.48 221.41,169.28C222.84,172.46 224.00,176.75 224.00,178.82C224.00,180.89 224.68,185.17 225.50,188.34C226.32,191.51 227.00,196.59 227.00,199.64C227.00,204.78 227.33,205.57 231.62,210.59C235.71,215.38 236.68,216.00 240.04,216.00C244.71,216.00 254.48,213.56 260.54,210.88C263.17,209.71 266.60,209.01 268.78,209.19C271.98,209.46 272.54,209.88 272.81,212.18C273.01,213.92 272.08,216.29 270.12,218.99C268.47,221.27 266.95,223.65 266.74,224.28C266.26,225.71 256.47,226.91 239.32,227.63L226.15,228.19L223.62,224.35Z M137.00,220.50C135.62,219.71 132.99,219.05 131.15,219.04C129.31,219.02 126.53,218.09 124.96,216.97C123.40,215.86 120.51,214.28 118.56,213.46C115.48,212.17 115.00,211.52 115.00,208.60C115.00,206.75 113.48,201.02 111.62,195.86C109.76,190.71 107.37,183.57 106.32,180.00C104.62,174.26 104.08,173.46 101.70,173.18C98.26,172.78 98.08,169.58 101.25,165.17C102.49,163.46 105.48,159.23 107.90,155.78C119.68,138.99 121.43,136.97 125.00,136.05C138.14,132.67 145.00,132.60 156.50,135.72C167.48,138.70 174.85,147.18 179.11,161.74C181.96,171.47 181.01,184.58 176.99,191.00C175.44,193.47 172.81,198.43 171.13,202.00C167.92,208.84 158.53,219.47 154.26,221.09C150.60,222.48 139.82,222.11 137.00,220.50Z M270.12,172.43C268.00,169.73 266.37,162.09 267.36,159.51C268.05,157.71 272.57,157.49 273.63,159.21C274.04,159.88 274.77,162.47 275.24,164.96C275.71,167.46 276.35,170.74 276.66,172.25C277.16,174.68 276.93,175.00 274.69,175.00C273.15,175.00 271.35,173.99 270.12,172.43Z"/>
</svg>
